<?xml version="1.0" encoding="UTF-8" standalone="no"?>
<svg
   xmlns:dc="http://purl.org/dc/elements/1.1/"
   xmlns:cc="http://creativecommons.org/ns#"
   xmlns:rdf="http://www.w3.org/1999/02/22-rdf-syntax-ns#"
   xmlns:svg="http://www.w3.org/2000/svg"
   xmlns="http://www.w3.org/2000/svg"
   id="svg821"
   version="1.1"
   viewBox="0 0 106.40296 63.493889"
   height="63.493889mm"
   width="106.40296mm">
  <defs
     id="defs815" />
  <metadata
     id="metadata818">
    <rdf:RDF>
      <cc:Work
         rdf:about="">
        <dc:format>image/svg+xml</dc:format>
        <dc:type
           rdf:resource="http://purl.org/dc/dcmitype/StillImage" />
        <dc:title></dc:title>
      </cc:Work>
    </rdf:RDF>
  </metadata>
  <g
     style="fill:#b7c6c6;fill-opacity:1"
     transform="translate(-59.599653,-92.360937)"
     id="layer1">
    <g
       id="flowRoot1373"
       style="font-style:normal;font-weight:normal;font-size:40px;line-height:1.25;font-family:sans-serif;letter-spacing:0px;word-spacing:0px;fill:#b7c6c6;fill-opacity:1;stroke:none" />
  </g>
  <path
     d="M 41.317737,6.733885 H 76.512389 V 50.299158 H 41.317737 Z M 59.699199,0.00516764 c -25.791123,0 -46.698959,13.20806336 -46.698959,29.50104136 0.0026,4.686339 -6e-6,-5.3e-4 1.345654,14.2906 C -1.3905657,54.985247 0.01975909,63.283552 0.04960937,63.448839 0.58522393,62.610904 13.524454,46.272344 47.25448,57.908091 c 4.050911,0.7189 8.23704,1.088628 12.444719,1.099159 25.791104,0 46.698961,-13.208071 46.698961,-29.501041 0,-16.292978 -20.907857,-29.50104136 -46.698961,-29.50104136 z M 0.04960937,63.448839 c -0.0269187,0.04211 -0.03271241,0.05728 0.0020672,0.0155 0,0 -0.0018023,-0.01384 -0.0020672,-0.0155 z"
     style="fill:#b7c6c6;fill-opacity:1;stroke-width:0.25684851"
     id="rect826" />
  <rect
     y="10.089071"
     x="44.660957"
     height="2.8249397"
     width="28.652962"
     id="rect833"
     style="fill:#b7c6c6;fill-opacity:1;stroke-width:0.26904112" />
  <rect
     y="16.801666"
     x="44.660957"
     height="2.8249397"
     width="28.652962"
     id="rect833-3"
     style="fill:#b7c6c6;fill-opacity:1;stroke-width:0.26904112" />
  <rect
     y="23.514261"
     x="44.660957"
     height="2.8249397"
     width="28.652962"
     id="rect833-6"
     style="fill:#b7c6c6;fill-opacity:1;stroke-width:0.26904112" />
  <rect
     y="30.226854"
     x="44.660957"
     height="2.8249397"
     width="28.652962"
     id="rect833-7"
     style="fill:#b7c6c6;fill-opacity:1;stroke-width:0.26904112" />
  <rect
     y="36.939453"
     x="44.660957"
     height="2.8249397"
     width="28.652962"
     id="rect833-5"
     style="fill:#b7c6c6;fill-opacity:1;stroke-width:0.26904112" />
  <rect
     y="43.652046"
     x="44.660957"
     height="2.8249397"
     width="28.652962"
     id="rect833-35"
     style="fill:#b7c6c6;fill-opacity:1;stroke-width:0.26904112" />
</svg>
